<svg xmlns="http://www.w3.org/2000/svg" viewBox="0 0 1045.86 565.49"><defs><style>.cls-1{fill:none;stroke:#ffd500;}</style></defs><g id="Layer_2" data-name="Layer 2"><g id="Layer_1-2" data-name="Layer 1"><g id="Page-2"><path id="Path" class="cls-1" d="M1030.65,73.36c-39.6-99.3-257.8-104.4-353.1,30.3S361,177.26,308,147.56,23.35,6.46,2.05,119s181.9,54.4,278.6,149.4,68.5,205.6,188.4,269.1,305,10.1,433.3-88S1070.25,172.66,1030.65,73.36Z"/><path id="Path-2" class="cls-1" d="M987.75,112.36c-35.1-87.9-228.5-92.4-312.9,26.9s-280.5,65.1-327.5,38.8S44.85,23.06,26,122.66s181,45.5,266.7,129.6,91.2,214.7,197.5,271,270.2,8.9,383.9-77.9S1022.85,200.26,987.75,112.36Z"/><path id="Path-3" class="cls-1" d="M955.35,130.26c-33.1-79.4-204.2-66.7-284,41.1s-276.2,42.1-320.5,18.3-294.2-126.4-302.8-59.4,179.4,42.1,260.2,118.1,88.1,199.9,188.5,250.7,244.1,10.6,351.4-67.9S988.45,209.66,955.35,130.26Z"/></g></g></g></svg>