<svg xmlns="http://www.w3.org/2000/svg" viewBox="0 0 506.95 619.34"><defs><style>.cls-1{fill:none;stroke:#ffd500;}</style></defs><g id="Layer_2" data-name="Layer 2"><g id="Layer_1-2" data-name="Layer 1"><g id="Page-2-2"><path id="Path-4" class="cls-1" d="M177.41,618.24c70.31,10.23,145.67-113.7,99.81-213.27s62.89-206.52,97.55-227.16,175.7-116.91,118-166.52S401,97.94,314.33,121.9,173.36,93.06,97,141-10.13,313.08,3.73,419.47,107.11,608,177.41,618.24Z"/><path id="Path-5" class="cls-1" d="M169.28,580.52c62.23,9,128.94-100.72,88.4-188.91s55.65-183,86.46-201.34S533.79,67.78,482.76,23.77s-86.31,89.08-163.12,110.32S165.85,115.27,98.16,157.72,3.3,310.22,15.52,404.45,107,571.59,169.28,580.52Z"/><path id="Path-6" class="cls-1" d="M169.73,556c56.72,7.35,106.21-95.37,70.66-177s67.45-172.83,95.88-190.48S506.72,61.27,471.08,34s-83.71,89.19-154.3,110.45S172.52,128.71,109.9,169.58s-87.16,137-77.64,224.68S113,548.61,169.73,556Z"/></g></g></g></svg>