<?xml version="1.0" encoding="utf-8"?>
<!-- Generator: Adobe Illustrator 23.1.0, SVG Export Plug-In . SVG Version: 6.00 Build 0)  -->
<svg version="1.1" id="Layer_1" xmlns="http://www.w3.org/2000/svg" xmlns:xlink="http://www.w3.org/1999/xlink" x="0px" y="0px" width="100"
  height="100"
	 viewBox="0 0 100 100" style="enable-background:new 0 0 100 100;" xml:space="preserve">

<style type="text/css">
 .st0 {
   fill: #1D1634;
 }

 .st1 {
   fill: #FFFFFF;
 }
</style>
<circle class="st0"
       cx="50"
       cy="50"
       r="45" />
<path class="st1"
     d="M33.55,31C24.07,31,19.5,41.26,19.5,49.64C19.5,60.18,25.44,69,37.21,69c11.42,0,15.08-8.28,17.94-15.31
c1.94-5.13,3.88-10.9,8.68-10.9c3.66,0,5.26,4.33,5.26,7.93c0,4.05-1.83,8.39-4.8,8.39h-3.31v9.82h7.43
c8.79,0,12.11-11.55,12.11-18.21c0-8.37-4.34-19.36-16.68-19.36c-11.08,0-15.08,9.01-18.05,15.76c-2.85,6.12-4.11,10.45-9.02,10.45
c-3.88,0-5.94-3.24-5.94-7.83c0-4.77,2.06-9.01,6.06-9.01h3.43V31H33.55z">
 <animateTransform id="rot"
                   attributeName="transform"
                   type="rotate"
                   from="0 50 50"
                   to="360 50 50"
                   dur="1s"
                   begin="0;rot.end+0.5s" />
</path>
</svg>

